# xmcd
#
# Track frame offsets:
#	150
#	22497
#	40637
#	58447
#	89525
#	103132
#	124475
#	140082
#	154702
#
# Disc length: 2525 seconds
#
# Revision: 5
# Processed by: cddbd v1.5.2PL0 Copyright (c) Steve Scherf et al.
# Submitted via: audiograbber 1.83.01
#
DISCID=8a09db09
DTITLE=Alabama - Just Us
DYEAR=1987
DGENRE=Country
TTITLE0=Tar Top
TTITLE1=I Can't Stop
TTITLE2=I Saw The Time
TTITLE3=You're My Explanation For Living
TTITLE4=Face To Face
TTITLE5=(I Wish It Could Always Be) '55
TTITLE6=Old Man
TTITLE7=If I Could Just See You Now
TTITLE8=Fallin' Again
EXTD=YEAR: 1987
EXTT0=
EXTT1=
EXTT2=
EXTT3=
EXTT4=
EXTT5=
EXTT6=
EXTT7=
EXTT8=
PLAYORDER=
